<svg xmlns="http://www.w3.org/2000/svg" fill="none" viewBox="0 0 240 240"><path d="M149.9 240H90.1a50 50 0 01-50-50v-2.1l4.4-106.1L46 47.9A50 50 0 0196 0h48a50 50 0 0150 47.9l5.8 140a50 50 0 01-47.9 52l-2 .1z" fill="#5F6368"/><path d="M149.9 240H90.1a50 50 0 01-50-50v-2.1h159.7a50 50 0 01-47.9 52l-2 .1z" fill="#3C4043"/><path d="M160.6 187.9v-32.1h35.9" stroke="#3C4043" stroke-miterlimit="10" stroke-linecap="round" stroke-linejoin="round"/><path d="M180.6 160.8h-15v27.1h15v-27.1zm17.2 27.1h-12.2v-27.1h11.1m-2.9-69.3h-13.2v64.3h15.9m-2.7-64.3h-20.7v-4m20.6 0h-26.1l-7-27.6h31.9" stroke="#3C4043" stroke-miterlimit="10" stroke-linecap="round" stroke-linejoin="round"/><path d="M164.4 62.9h13v21.6h-7.5l-5.5-21.6zm29.1 21.6h-12.9V62.9h12m-.4-9.5h-31.6v6.5h31.9m-.3-6.5h-19.1l-1-5.1H192m0 0h-17.2l-.4-1.8h17.5m-12.6 0v-4.6m5.3 4.6v-2.9m1.5-7.1h-3v7.1h3v-7.1zm-5.5-5.3h-2.5v10.7h2.5V31.2zm-12.2 144.9l10.4-10.4m-10.7 17.1l7.2-7.2m13.2 7.4l8.7-8.7m-5.7-.3l5.5-5.5M177.4 66.7l-6 6m-2.4 8.2l6.1-6.1m5.5 7.1l8.5-8.6m-4.2-4l6-6.1m-128 124.7v-15m0-.1a6 6 0 100-12 6 6 0 000 12zm-10.2 15.1v-52.6m-20 5.1l19.9 2.9v-8l-19.9 2.9c-.6.1-1 .6-1 1.1 0 .6.5 1 1 1.1zm4.3-2.9v3.5m5.2-4.2v5m5.2-5.8v6.5m0-6.5l5.3 7.3m0-8l-5.3 7.2M49.9 35a23.3 23.3 0 0126.6 20.3 16.7 16.7 0 0123.9 13.6h.1c7.2 0 13.2 5.6 13.6 12.8H46" stroke="#3C4043" stroke-miterlimit="10" stroke-linecap="round" stroke-linejoin="round"/><path d="M119.2 187.9a4.1 4.1 0 100-8.2 4.1 4.1 0 000 8.2z" fill="#669DF6"/><path d="M119.2 185.6a1.8 1.8 0 100-3.6 1.8 1.8 0 000 3.6z" fill="#AECBFA"/><path d="M150.2 187.9a4.1 4.1 0 100-8.2 4.1 4.1 0 000 8.2z" fill="#669DF6"/><path d="M150.2 185.6a1.8 1.8 0 100-3.6 1.8 1.8 0 000 3.6z" fill="#AECBFA"/><path d="M122.3 104.7v68.1H81.8v-22.1l24.4-45.9 16.1-.1zm1-1h-17.7l-24.8 46.7v23.4h42.5v-70.1z" fill="#669DF6"/><path d="M90.5 173.8l30.9-58.4h17.5v58.4H90.5zm63.9 0H80.8v5.9h73.6v-5.9z" fill="#669DF6"/><path d="M117.6 173.8H80.8v5.9h36.8v-5.9zm-32.7 14.1a4.1 4.1 0 100-8.2 4.1 4.1 0 000 8.2z" fill="#AECBFA"/><path d="M84.9 185.6a1.8 1.8 0 100-3.6 1.8 1.8 0 000 3.6z" fill="#E8F0FE"/><path d="M115.9 187.9a4.1 4.1 0 100-8.2 4.1 4.1 0 000 8.2z" fill="#AECBFA"/><path d="M115.9 185.6a1.8 1.8 0 100-3.6 1.8 1.8 0 000 3.6z" fill="#E8F0FE"/><path d="M111.8 115.4l-31 58.4h9.7l30.9-58.4h-9.6z" fill="#AECBFA"/><path d="M138.9 115.4v58.4H96.6v-11.7h6.2v-11.7h6.2v-11.7h6.2v-11.6h6.2v-11.7h17.5z" fill="#E8F0FE"/><path d="M138.9 150.9h-36.1m-6.2 11.7h42.3m-17.5-46.7h17.5m-23.7 11.7h23.7M109 139.2h29.9" stroke="#AECBFA" stroke-miterlimit="10"/><path d="M148.6 115.4l-31 58.4h36.8v-58.4h-5.8z" fill="#669DF6"/><path d="M138.9 115.4l-31 58.4h9.7l31-58.4h-9.7z" fill="#AECBFA"/><path d="M153.4 104.7v68.1h-40.5v-22.1l24.4-45.9 16.1-.1zm1-1h-17.7l-24.8 46.7v23.4h42.5v-70.1z" fill="#669DF6"/><path d="M81.3 173.8v-4.7" stroke="#4285F4" stroke-miterlimit="10"/><path d="M154.4 173.3h-22.7" stroke="#AECBFA" stroke-miterlimit="10"/></svg>