<svg version="1.1" id="Layer_1" xmlns="http://www.w3.org/2000/svg" x="0" y="0" viewBox="0 0 240 240" xml:space="preserve"><style>.st1{fill:#e8f0fe}.st3{fill:none;stroke:#d2e3fc;stroke-linejoin:round}.st4{fill:#4285f4}.st5{fill:#8ab4f8}.st6{fill:#aecbfa}.st7{fill:none;stroke:#aecbfa;stroke-miterlimit:10}</style><path fill="none" d="M0 0h240v240H0z"/><path class="st1" d="M149.9 240H90.1c-27.6 0-50-22.3-50-50v-2.1l4.4-106.1L46 47.9C47.1 21.1 69.2 0 96 0h48c26.8 0 48.9 21.1 50 47.9l5.8 140c1.1 27.6-20.3 50.9-47.9 52-.6.1-1.3.1-2 .1z"/><path d="M149.9 240H90.1c-27.6 0-50-22.3-50-50v-2.1h159.7c1.1 27.6-20.3 50.9-47.9 52-.6.1-1.3.1-2 .1z" fill="#d2e3fc"/><path class="st3" d="M160.6 187.9v-32.1h35.9"/><path class="st3" d="M165.6 160.8h15v27.1h-15zM197.8 187.9h-12.2v-27.1h11.1M193.8 91.5h-13.2v64.3h15.9M193.8 91.5h-20.7v-4M193.6 87.5h-26l-7-27.6h31.9"/><path class="st3" d="M164.4 62.9h13v21.6h-7.5zM193.5 84.5h-12.9V62.9h12M192.2 53.3h-31.6v6.6h31.9M192.2 53.3h-19.1l-1-5H192M192 48.3h-17.2l-.4-1.9h17.5M179.3 46.4v-4.6M184.6 46.4v-2.8M183.1 36.5h3v7.1h-3zM178.1 31.2h2.5v10.7h-2.5zM168.4 176.1l10.4-10.4M168.1 182.8l7.2-7.2M188.5 183l8.7-8.7M191.5 174l5.5-5.5M177.4 66.7l-6 6M169 80.9l6.1-6.1M180.6 81.9l8.5-8.6M184.9 69.3l6-6.1M62.9 187.9v-15"/><circle class="st3" cx="62.9" cy="166.8" r="6"/><path class="st3" d="M52.7 187.9v-52.6M32.7 140.4l19.9 2.9v-8l-19.9 2.9c-.6.1-1 .6-1 1.1 0 .6.5 1 1 1.1zM37 137.5v3.5M42.2 136.8v5M47.4 136v6.5M47.4 136l5.3 7.3M52.7 135.3l-5.3 7.2M49.9 35c1.2-.2 2.3-.3 3.5-.3 11.8 0 21.7 8.8 23.1 20.6 8.3-4 18.3-.5 22.3 7.8.9 1.8 1.4 3.8 1.6 5.8h.1c7.2 0 13.2 5.6 13.6 12.8H46"/><circle class="st4" cx="119.2" cy="183.8" r="4.1"/><circle class="st5" cx="119.2" cy="183.8" r="1.8"/><circle class="st4" cx="150.2" cy="183.8" r="4.1"/><circle class="st5" cx="150.2" cy="183.8" r="1.8"/><path class="st4" d="M122.3 104.7v68.1H81.8v-22.1l24.4-45.9 16.1-.1m1-1h-17.7l-24.8 46.7v23.4h42.5v-70.1z"/><path class="st4" d="M90.4 173.8l31-58.4h17.5v58.4H90.4M80.8 173.8h73.6v5.9H80.8z"/><path class="st6" d="M80.8 173.8h36.8v5.9H80.8z"/><circle class="st6" cx="84.9" cy="183.8" r="4.1"/><circle class="st1" cx="84.9" cy="183.8" r="1.8"/><circle class="st6" cx="115.9" cy="183.8" r="4.1"/><circle class="st1" cx="115.9" cy="183.8" r="1.8"/><path class="st6" d="M111.8 115.4l-31 58.4h9.6l31-58.4z"/><path class="st1" d="M138.9 115.4v58.4H96.6v-11.7h6.2v-11.7h6.2v-11.7h6.2v-11.6h6.2v-11.7z"/><path class="st7" d="M138.9 150.9h-36.1M96.6 162.6h42.3M121.4 115.9h17.5M115.2 127.6h23.7M109 139.2h29.9"/><path class="st4" d="M148.6 115.4l-31 58.4h36.8v-58.4z"/><path class="st6" d="M138.9 115.4l-31 58.4h9.7l31-58.4z"/><path class="st4" d="M153.4 104.7v68.1h-40.5v-22.1l24.4-45.9 16.1-.1m1-1h-17.7l-24.8 46.7v23.4h42.5v-70.1z"/><path fill="none" stroke="#4285f4" stroke-miterlimit="10" d="M81.2 173.8v-4.7"/><path class="st7" d="M154.4 173.3h-22.7"/></svg>