<svg width="75" height="49" viewBox="0 0 75 49" fill="none" xmlns="http://www.w3.org/2000/svg">
<mask id="mask0_866_70733" style="mask-type:alpha" maskUnits="userSpaceOnUse" x="0" y="0" width="75" height="49">
<path d="M0.139912 0.611572H74.8329V40.7465C74.8329 45.1647 71.2511 48.7465 66.8329 48.7465H0.139912V0.611572Z" fill="#D9D9D9"/>
</mask>
<g mask="url(#mask0_866_70733)">
<path d="M78.7828 38.9887C78.7828 60.1093 61.239 77.231 39.5975 77.231C4.74352 77.231 0.412258 60.1093 0.412258 38.9887C0.412258 17.8681 17.9561 0.74646 39.5975 0.74646C61.239 0.74646 78.7828 17.8681 78.7828 38.9887Z" fill="#5F6368"/>
<mask id="mask1_866_70733" style="mask-type:alpha" maskUnits="userSpaceOnUse" x="0" y="0" width="79" height="78">
<ellipse cx="39.5975" cy="38.9887" rx="39.1853" ry="38.2422" fill="#E8F0FE"/>
</mask>
<g mask="url(#mask1_866_70733)">
<path d="M3.87457 8.35774C-3.18122 7.37509 -9.80272 10.6463 -12.0654 12.7722C-16.4227 16.8659 -17.3337 20.0302 -15.6219 20.0302H1.85724H25.9151C25.7469 18.2854 23.0691 16.623 21.6455 15.1193C15.4876 10.8768 12.4262 13.1255 3.87457 8.35774Z" stroke="#3C4043" stroke-linejoin="round"/>
<path d="M70.8003 39.8692C72.1258 38.9628 73.8391 38.4621 75.6143 38.4623C83.5853 40.0358 84.3347 49.7123 83.2423 49.7123H72.0877H50.4182C50.5255 48.241 57.5011 47.1512 59.2931 46.5081C60.3704 46.1215 61.8822 43.7616 65.9833 42.9862C67.1539 42.3839 67.7824 41.9329 70.8003 39.8692Z" stroke="#3C4043" stroke-linejoin="round"/>
<path d="M70.2264 10.0277H59.4417C59.5641 8.76805 67.2602 6.24778 68.3315 5.90969C69.5977 5.51007 73.5016 4.55046 73.9258 4.60994C75.1229 4.77784 76.6531 7.06791 77.2957 7.66711C79.249 9.4885 78.8293 10.0277 78.062 10.0277H70.2264Z" stroke="#3C4043" stroke-linejoin="round"/>
</g>
<path d="M54.0604 12.4226C53.6297 12.4879 53.2488 12.3572 53.0169 12.2428C54.0731 15.4458 54.9016 19.6623 56.3986 22.1417C56.7063 22.6514 60.6646 28.1437 61.0204 28.9935C61.3761 29.8433 59.2766 34.8517 60.1469 40.2065C62.7079 55.9623 59.0293 69.6375 57.373 74.5406C52.4041 76.1749 48.9486 74.1104 48.9486 74.1104C47.2923 69.2073 47.4352 64.7345 47.4352 64.7345H39.1536C39.1536 64.7345 39.2629 69.2073 37.6066 74.1104C37.6066 74.1104 34.1847 76.1749 29.2158 74.5406C27.5594 69.6375 25.5219 53.9994 26.3969 40.2065C24.4817 36.8744 22.087 36.3349 19.2746 33.2724C17.7268 31.587 21.5317 31.8991 22.5845 30.3744C24.071 28.2215 30.133 22.9364 30.3969 22.1417C31.5596 18.6417 32.5156 15.4458 33.5719 12.2428C33.34 12.3572 32.959 12.4879 32.5284 12.4226C31.5512 12.2591 31.3144 11.5368 31.1157 11.1118C30.9832 10.834 30.2875 9.29771 31.1157 7.84314C31.7451 6.73178 33.2689 5.6858 34.4283 6.20879C35.1736 6.53566 35.2116 7.0619 35.2944 7.35608C36.8182 6.73503 39.3027 5.95054 42.4662 5.88517C42.7478 5.86882 43.0128 5.90151 43.2944 5.90151C43.576 5.88517 43.841 5.88517 44.1225 5.88517C47.2695 5.9342 49.7705 6.73503 51.2943 7.35608C51.3772 7.0619 51.6587 6.21204 52.4041 5.88517C53.5635 5.36218 55.0873 6.40816 55.7167 7.51952C56.5448 8.97409 55.8492 10.5104 55.7167 10.7882L55.7109 10.8006C55.5087 11.2331 55.0282 12.2607 54.0604 12.4226Z" fill="#E8F0FE"/>
<path d="M39.6197 17.2539C41.679 18.053 43.7076 18.053 45.7669 17.2539" stroke="#3C4043" stroke-miterlimit="10"/>
<line x1="42.2927" y1="15.6577" x2="42.2927" y2="17.8538" stroke="#3C4043"/>
<path d="M39.0522 13.8609C39.3998 13.8609 39.6816 13.5828 39.6816 13.2398C39.6816 12.8968 39.3998 12.6188 39.0522 12.6188C38.7046 12.6188 38.4228 12.8968 38.4228 13.2398C38.4228 13.5828 38.7046 13.8609 39.0522 13.8609Z" fill="#3C4043"/>
<path d="M45.9288 13.7994C46.2764 13.7994 46.5582 13.5213 46.5582 13.1783C46.5582 12.8353 46.2764 12.5573 45.9288 12.5573C45.5812 12.5573 45.2994 12.8353 45.2994 13.1783C45.2994 13.5213 45.5812 13.7994 45.9288 13.7994Z" fill="#3C4043"/>
<path d="M42.3646 16.312C43.2794 16.312 44.021 15.7632 44.021 15.0862C44.021 14.4093 43.2794 13.8605 42.3646 13.8605C41.4499 13.8605 40.7083 14.4093 40.7083 15.0862C40.7083 15.7632 41.4499 16.312 42.3646 16.312Z" fill="#3C4043"/>
<path d="M42.2971 14.4635C42.2971 14.4635 42.4697 14.4045 42.7559 14.4909C43.0421 14.5772 43.1697 14.6972 43.1697 14.6972" stroke="#E8F0FE" stroke-width="0.5"/>
<path d="M33.7209 7.88916C33.7209 7.88916 33.1099 8.13579 32.7625 8.98413C32.415 9.83247 32.5545 10.405 32.5545 10.405" stroke="#5F6368"/>
<path d="M53.1375 7.52136C53.1375 7.52136 53.7238 7.82217 53.9932 8.69842C54.2626 9.57468 54.072 10.1323 54.072 10.1323" stroke="#5F6368"/>
<path fill-rule="evenodd" clip-rule="evenodd" d="M23.3573 20.4202C23.011 19.1443 20.0514 16.7221 17.6436 17.6426C15.2358 18.5631 14.4945 21.6558 14.8882 23.7578C15.0085 24.4192 15.2527 25.0582 15.5873 25.6485C15.6095 25.7236 15.655 25.873 15.7169 26.0758C15.9902 26.9724 16.5814 28.912 16.8807 30.0799C16.9034 30.1682 16.9292 30.2773 16.9593 30.4047C17.4439 32.4524 19.0483 39.233 26.5794 40.565C34.5791 41.9798 26.5794 27.4641 26.5794 27.4641C25.5361 25.7992 24.6478 24.2294 24.4478 23.4879C24.3915 23.3443 24.3374 23.2054 24.2851 23.0711C24.0438 22.4519 23.8413 21.9323 23.6451 21.5048C23.5562 21.1605 23.46 20.7993 23.3573 20.4202Z" fill="#E8F0FE"/>
<path d="M16.1547 22.8665C15.9716 22.988 15.6817 22.8905 15.5072 22.6488C15.3327 22.407 15.3396 22.1126 15.5227 21.9911C15.7058 21.8696 15.9956 21.9671 16.1702 22.2088C16.3447 22.4506 16.3377 22.745 16.1547 22.8665Z" fill="#5F6368"/>
<path d="M16.829 20.998C16.646 21.1195 16.3561 21.022 16.1816 20.7802C16.007 20.5385 16.014 20.244 16.1971 20.1225C16.3801 20.0011 16.67 20.0986 16.8445 20.3403C17.019 20.5821 17.0121 20.8765 16.829 20.998Z" fill="#5F6368"/>
<path d="M18.166 19.9842C17.9829 20.1057 17.693 20.0082 17.5185 19.7664C17.344 19.5247 17.3509 19.2302 17.534 19.1087C17.7171 18.9873 18.0069 19.0848 18.1815 19.3265C18.356 19.5683 18.349 19.8627 18.166 19.9842Z" fill="#5F6368"/>
<path d="M20.0343 19.5632C19.8512 19.6847 19.5613 19.5872 19.3868 19.3454C19.2123 19.1037 19.2192 18.8092 19.4023 18.6877C19.5854 18.5663 19.8752 18.6638 20.0498 18.9055C20.2243 19.1472 20.2173 19.4417 20.0343 19.5632Z" fill="#5F6368"/>
<path d="M21.8086 20.0685C21.635 20.1228 21.427 19.9784 21.3441 19.7459C21.2612 19.5134 21.3347 19.2809 21.5083 19.2266C21.6819 19.1723 21.8898 19.3168 21.9728 19.5492C22.0557 19.7817 21.9822 20.0142 21.8086 20.0685Z" fill="#5F6368"/>
<path d="M17.0658 24.6862C17.5328 23.5063 20.4794 21.9808 22.1488 21.6677C22.4658 21.1586 21.3898 20.4306 20.5366 20.4666C18.7341 20.5429 17.2463 22.0413 16.7906 22.7729C16.4736 23.282 16.4071 24.2692 17.0658 24.6862Z" fill="#5F6368"/>
<path d="M54.4527 43.1848C52.951 44.1384 51.0331 45.167 49.4702 46.2222C49.4702 46.2222 53.6917 45.4998 56.5799 44.9563C56.5799 44.9563 56.469 39.85 56.4576 39.2437C54.7775 37.7044 55.9545 42.2312 54.4527 43.1848Z" fill="#BDC1C6"/>
<path d="M58.186 27.217C62.2813 27.2169 65.1054 37.8321 64.1103 43.6806C63.1153 49.529 57.114 50.9553 55.0715 51.5711C50.7144 52.8846 46.5481 50.6319 47.6687 49.77C49.0068 48.7406 51.6448 45.7959 53.4323 44.5768C55.4526 43.6806 55.7091 43.6409 55.7091 42.8175C55.7096 37.2618 50.7311 30.0581 58.186 27.217Z" fill="#E8F0FE"/>
<path d="M48.0982 52.3257C46.7045 50.1572 48.47 46.7646 49.648 46.1646C54.5221 43.6855 56.249 43.1456 58.1372 46.0837C59.6449 48.4297 57.7226 52.5221 54.6477 53.7717C52.6707 54.5871 49.4918 54.4943 48.0982 52.3257Z" fill="#E8F0FE"/>
</g>
</svg>
