<svg width="99" height="60" viewBox="0 0 99 60" fill="none" xmlns="http://www.w3.org/2000/svg">
<mask id="mask0_1053_69878" style="mask-type:alpha" maskUnits="userSpaceOnUse" x="0" y="8" width="99" height="52">
<rect x="0.124054" y="8.65942" width="98.15" height="50.962" fill="white"/>
</mask>
<g mask="url(#mask0_1053_69878)">
<circle cx="49.199" cy="61.3583" r="49.0751" fill="#80868B"/>
</g>
<mask id="mask1_1053_69878" style="mask-type:alpha" maskUnits="userSpaceOnUse" x="0" y="12" width="99" height="48">
<mask id="mask2_1053_69878" style="mask-type:alpha" maskUnits="userSpaceOnUse" x="0" y="12" width="99" height="48">
<rect x="0.124054" y="12.2603" width="98.15" height="47.3613" fill="white"/>
</mask>
<g mask="url(#mask2_1053_69878)">
<circle cx="49.199" cy="61.3353" r="49.0751" fill="#E8F0FE"/>
</g>
</mask>
<g mask="url(#mask1_1053_69878)">
<path d="M14.1358 21.3992C4.66946 20.6523 -4.21422 23.1387 -7.24998 24.7546C-13.0959 27.8662 -14.3181 30.2713 -12.0215 30.2713H11.4293H43.7063C43.4806 28.9451 39.888 27.6815 37.9781 26.5386C29.7164 23.3139 25.609 25.0232 14.1358 21.3992Z" stroke="#3C4043" stroke-linejoin="round"/>
<path d="M77.3216 32.293C79.579 30.6544 82.497 29.7491 85.5204 29.7495C99.0959 32.5942 100.372 50.0882 98.5118 50.0882H79.5142H42.6084C42.7912 47.4282 54.6714 45.458 57.7235 44.2953C59.5582 43.5964 62.1331 39.3301 69.1177 37.9282C71.1113 36.8393 72.1818 36.0239 77.3216 32.293Z" stroke="#3C4043" stroke-linejoin="round"/>
<path d="M62.1987 20.9307H47.7295C47.8937 19.2795 58.2192 15.9757 59.6565 15.5325C61.3553 15.0086 66.5929 13.7507 67.162 13.8287C68.7681 14.0488 70.8211 17.0508 71.6832 17.8362C74.3038 20.2239 73.7408 20.9307 72.7113 20.9307H62.1987Z" stroke="#3C4043" stroke-linejoin="round"/>
</g>
<mask id="mask3_1053_69878" style="mask-type:alpha" maskUnits="userSpaceOnUse" x="7" y="0" width="84" height="60">
<rect x="7.54648" y="0.818115" width="83.2967" height="58.8034" fill="#D9D9D9"/>
</mask>
<g mask="url(#mask3_1053_69878)">
<path d="M54.2865 36.4646C53.7111 36.5519 53.2022 36.3773 52.8924 36.2244C54.3035 40.5038 55.4103 46.1371 57.4103 49.4496C57.8215 50.1306 65.8556 59.2013 66.9103 61.1265C70.8478 68.314 63.0035 69.7028 60.9251 73.5846C63.1601 94.7867 60.9251 112.905 58.7122 119.456C52.0736 121.639 47.457 118.881 47.457 118.881C45.2442 112.33 45.435 106.355 45.435 106.355H34.3706C34.3706 106.355 34.5166 112.33 32.3037 118.881C32.3037 118.881 27.732 121.639 21.0934 119.456C18.8806 112.905 13.6539 93.8829 15.8889 72.6808C16.6608 65.3579 7.30998 68.5122 12.1603 61.1265C13.8175 58.603 19.9487 50.4022 20.5353 49.4496C23.3063 44.9496 25.5021 40.5038 26.9133 36.2244C26.6035 36.3773 26.0945 36.5519 25.5192 36.4646C24.2261 36.2483 23.5842 34.8755 23.314 34.2976L23.3063 34.2811C23.1293 33.9099 22.1999 31.8574 23.3063 29.914C24.1472 28.4292 26.183 27.0318 27.732 27.7305C28.7278 28.1672 29.104 29.3026 29.2146 29.6957C31.2505 28.8659 34.5698 27.8178 38.7964 27.7305C39.1726 27.7086 39.5266 27.7523 39.9028 27.7523C40.279 27.7305 40.6331 27.7305 41.0092 27.7305C45.2137 27.796 48.5551 28.8659 50.591 29.6957C50.7016 29.3026 51.0778 28.1672 52.0736 27.7305C53.6226 27.0318 55.6585 28.4292 56.4993 29.914C57.6058 31.8574 56.6764 33.9099 56.4993 34.2811L56.4916 34.2976C56.2214 34.8755 55.5796 36.2483 54.2865 36.4646Z" fill="#F2F7FF"/>
<path d="M35.7544 42.9207C38.5057 43.9883 41.2159 43.9883 43.9672 42.9207" stroke="#3C4043" stroke-miterlimit="10"/>
<line x1="39.9722" y1="40.7874" x2="39.9722" y2="43.7214" stroke="#3C4043"/>
<path d="M34.9136 38.3863C35.3781 38.3863 35.7545 38.0148 35.7545 37.5565C35.7545 37.0983 35.3781 36.7268 34.9136 36.7268C34.4492 36.7268 34.0728 37.0983 34.0728 37.5565C34.0728 38.0148 34.4492 38.3863 34.9136 38.3863Z" fill="#3C4043"/>
<path d="M44.9206 38.3863C45.385 38.3863 45.7615 38.0148 45.7615 37.5565C45.7615 37.0983 45.385 36.7268 44.9206 36.7268C44.4562 36.7268 44.0797 37.0983 44.0797 37.5565C44.0797 38.0148 44.4562 38.3863 44.9206 38.3863Z" fill="#3C4043"/>
<path d="M39.9133 41.6615C41.1355 41.6615 42.1262 40.9283 42.1262 40.0239C42.1262 39.1194 41.1355 38.3862 39.9133 38.3862C38.6912 38.3862 37.7005 39.1194 37.7005 40.0239C37.7005 40.9283 38.6912 41.6615 39.9133 41.6615Z" fill="#3C4043"/>
<path d="M26.7104 29.9167C26.7104 29.9167 25.9272 30.3186 25.5672 31.4893C25.2072 32.66 25.4619 33.405 25.4619 33.405" stroke="#80868B"/>
<path d="M53.0528 29.9167C53.0528 29.9167 53.836 30.3186 54.196 31.4893C54.556 32.66 54.3012 33.405 54.3012 33.405" stroke="#80868B"/>
</g>
<path d="M39.5772 39.4277C39.5772 39.4277 39.89 39.3535 40.4276 39.5174C40.9652 39.6814 41.2133 39.8814 41.2133 39.8814" stroke="#F2F7FF" stroke-width="0.5"/>
<path fill-rule="evenodd" clip-rule="evenodd" d="M74.9546 48.8836C74.9574 47.1425 77.8901 43.0473 81.2676 43.3921C84.645 43.7369 86.6483 47.4153 86.8686 50.2232C86.9751 51.4959 86.7379 52.7976 86.2577 53.9935C86.2532 54.0973 86.2504 54.1956 86.2504 54.2887C86.2504 54.3863 86.2898 54.7201 86.3511 55.2393C86.4629 56.1858 86.6475 57.7487 86.7988 59.6215H73.5688C74.3245 56.7812 74.9158 54.1406 74.9158 52.9799C74.9381 52.7481 74.9593 52.5241 74.9797 52.3076C74.987 52.2307 74.9942 52.1548 75.0013 52.0798C74.9632 51.1388 74.9534 50.0779 74.9546 48.8836Z" fill="#F2F7FF"/>
<path d="M84.9521 49.5247C85.2266 49.6164 85.5618 49.3929 85.7008 49.0256C85.8398 48.6584 85.73 48.2863 85.4555 48.1946C85.181 48.1029 84.8459 48.3263 84.7069 48.6936C84.5679 49.0609 84.6777 49.433 84.9521 49.5247Z" fill="#80868B"/>
<path d="M83.4546 47.3806C83.729 47.4723 84.0642 47.2489 84.2032 46.8816C84.3422 46.5143 84.2324 46.1423 83.9579 46.0506C83.6835 45.9589 83.3483 46.1823 83.2093 46.5496C83.0703 46.9168 83.1801 47.2889 83.4546 47.3806Z" fill="#80868B"/>
<path d="M81.4066 46.5495C81.6811 46.6412 82.0162 46.4178 82.1552 46.0505C82.2942 45.6833 82.1844 45.3113 81.91 45.2196C81.6355 45.1279 81.3003 45.3513 81.1613 45.7186C81.0223 46.0858 81.1321 46.4578 81.4066 46.5495Z" fill="#80868B"/>
<path d="M78.8863 46.6547C79.1607 46.7464 79.4959 46.523 79.6349 46.1558C79.7739 45.7885 79.6641 45.4164 79.3896 45.3248C79.1152 45.2331 78.78 45.4565 78.641 45.8237C78.502 46.191 78.6118 46.563 78.8863 46.6547Z" fill="#80868B"/>
<path d="M76.8038 47.9063C77.0432 47.9158 77.2581 47.6608 77.2838 47.3367C77.3095 47.0126 77.1363 46.7422 76.8969 46.7327C76.6575 46.7232 76.4427 46.9782 76.417 47.3023C76.3912 47.6263 76.5645 47.8967 76.8038 47.9063Z" fill="#80868B"/>
<path d="M84.418 52.1512C83.4195 50.811 79.1494 49.8817 76.9192 50.0561C76.3415 49.5175 77.46 48.2227 78.5573 47.9759C80.8756 47.4546 83.2814 48.8498 84.1117 49.6239C84.6895 50.1625 85.1125 51.395 84.418 52.1512Z" fill="#80868B"/>
</svg>
