<svg width="81" height="81" viewBox="0 0 81 81" fill="none" xmlns="http://www.w3.org/2000/svg">
<circle cx="40.5874" cy="40.1892" r="40" fill="#5F6368"/>
<mask id="mask0_777_71480" style="mask-type:alpha" maskUnits="userSpaceOnUse" x="0" y="0" width="81" height="81">
<circle cx="40.5874" cy="40.1892" r="40" fill="#E8F0FE"/>
</mask>
<g mask="url(#mask0_777_71480)">
<path d="M64.6315 18.3288C66.4389 17.0169 68.7751 16.2922 71.1956 16.2925C82.0644 18.57 83.0862 32.5759 81.5967 32.5759H66.387H36.8397C36.9861 30.4463 46.4975 28.8689 48.941 27.938C50.4099 27.3785 52.4714 23.9628 58.0634 22.8404C59.6595 21.9687 60.5166 21.3159 64.6315 18.3288Z" stroke="#3C4043" stroke-linejoin="round"/>
<path d="M12.2905 12.2563C4.71167 11.6583 -2.40073 13.6489 -4.83119 14.9426C-9.51149 17.4338 -10.49 19.3594 -8.65135 19.3594H10.1237H35.9651C35.7844 18.2976 32.9081 17.286 31.379 16.3709C24.7646 13.7892 21.4761 15.1577 12.2905 12.2563Z" stroke="#3C4043" stroke-linejoin="round"/>
<path d="M49.7245 5.87795H38.1403C38.2717 4.55596 46.5384 1.91091 47.6891 1.55608C49.0492 1.13668 53.2426 0.129551 53.6982 0.191985C54.9841 0.368197 56.6277 2.77164 57.3179 3.4005C59.416 5.31207 58.9652 5.87795 58.141 5.87795H49.7245Z" stroke="#3C4043" stroke-linejoin="round"/>
<path d="M31.986 69.2874L55.0587 63.8218L38.7493 103.023L26.0961 106.182L31.986 69.2874Z" fill="#4285F4"/>
<path d="M40.2988 56.9661L66.0257 47.3137L45.2047 96.9272H38.3976L40.2988 56.9661Z" fill="#4285F4"/>
<path d="M4.24542 58.0212L31.971 69.2504L26.1056 106.096L12.1335 104.66L4.24542 58.0212Z" fill="#8AB4F8"/>
<path d="M66.3196 47.3685L40.4276 57.0256L55.061 64.0161L32.039 69.3289L4.35689 58.1441L-16.5996 41.384L27.7188 30.7241L66.3196 47.3685Z" fill="#AECBFA"/>
<path d="M84.4438 51.916L90.0816 62.319L87.9817 67.2925L72.3869 68.2733L56.2617 59.2243L68.7507 54.2508L84.4438 51.916Z" fill="#AECBFA"/>
<path d="M56.1951 59.1311L72.7836 68.432L74.8464 87.5525L61.9326 88.5361L56.1951 59.1311Z" fill="#8AB4F8"/>
<path d="M92.0956 66.9126L72.6531 68.1335L72.4703 88.5589L87.1405 85.3641L92.0956 66.9126Z" fill="#8AB4F8"/>
</g>
<path d="M42.7359 36.9363C41.6375 29.4045 39.5966 26.0105 37.7803 20.5024C37.9498 20.5861 38.2283 20.6816 38.5432 20.6338C39.2576 20.5144 39.6087 19.7497 39.754 19.439C39.8509 19.2359 40.3595 18.1128 39.754 17.0494C39.2939 16.2369 38.1799 15.4722 37.3323 15.8546C36.7874 16.0935 36.5815 16.7148 36.521 16.9299C35.407 16.4759 33.5786 15.8904 31.2779 15.8546C31.0721 15.8546 30.8783 15.8546 30.6725 15.8665C30.4667 15.8665 30.2729 15.8426 30.0671 15.8546C27.7543 15.9024 25.938 16.4759 24.824 16.9299C24.7634 16.7148 24.5576 16.0935 24.0127 15.8546C23.1651 15.4722 22.0511 16.2369 21.591 17.0494C20.9855 18.1128 21.4941 19.2359 21.591 19.439C21.7363 19.7497 22.0874 20.5144 22.8018 20.6338C23.1167 20.6816 23.3952 20.5861 23.5647 20.5024C21.7484 26.0105 14.547 31.2308 13.6994 39.2719C12.538 40.9457 10.2804 44.8204 10.8607 47.5947C11.8323 52.24 14.9918 50.9668 14.9918 50.9668C16.4136 50.6825 19.299 48.95 19.299 48.95L24.0127 49.4012C24.0127 49.4012 39.2483 46.756 38.5432 52.24C38.5432 52.24 47.0248 48.8659 47.0248 43.3174C47.0248 40.841 46.8156 40.2314 42.7359 36.9363Z" fill="#E8F0FE"/>
<path d="M43.4249 39.1847L44.6467 38.6729C44.6467 38.6729 46.7488 42.3253 45.5895 46.5084C42.668 48.1007 43.4249 46.17 43.4249 46.17V39.1847Z" fill="#BDC1C6"/>
<path d="M28.4032 24.4343C29.9493 24.4343 31.277 24.4343 32.8972 24.4343" stroke="#3C4043" stroke-width="0.5" stroke-miterlimit="10"/>
<line x1="30.6875" y1="22.9993" x2="30.6875" y2="24.6047" stroke="#3C4043" stroke-width="0.5"/>
<path d="M9.74384 45.7771C8.70933 47.6119 9.93886 49.8354 11.3492 50.8654C14.3722 52.0563 17.6144 51.6565 18.4595 50.1581C19.5786 48.1733 17.7423 45.0025 15.111 44.1936C13.4186 43.664 10.7783 43.9424 9.74384 45.7771Z" fill="#E8F0FE"/>
<path fill-rule="evenodd" clip-rule="evenodd" d="M9.6778 48.4343C9.04526 47.362 8.79174 46.0434 9.44725 44.8808C10.4818 43.046 13.122 42.7676 14.8144 43.2973C16.4084 43.7873 17.7107 45.144 18.2409 46.5789C17.5884 45.4604 16.4865 44.4912 15.1924 44.0934C13.4999 43.5637 10.8597 43.8421 9.82518 45.6769C9.32457 46.5647 9.35413 47.5436 9.6778 48.4343Z" fill="#BDC1C6"/>
<path d="M27.9432 21.6854C28.1973 21.6854 28.4033 21.4821 28.4033 21.2314C28.4033 20.9806 28.1973 20.7773 27.9432 20.7773C27.689 20.7773 27.483 20.9806 27.483 21.2314C27.483 21.4821 27.689 21.6854 27.9432 21.6854Z" fill="#3C4043"/>
<path d="M33.4189 21.6854C33.6731 21.6854 33.8791 21.4821 33.8791 21.2314C33.8791 20.9806 33.6731 20.7773 33.4189 20.7773C33.1648 20.7773 32.9588 20.9806 32.9588 21.2314C32.9588 21.4821 33.1648 21.6854 33.4189 21.6854Z" fill="#3C4043"/>
<path d="M30.6789 23.4778C31.3477 23.4778 31.8898 23.0766 31.8898 22.5817C31.8898 22.0868 31.3477 21.6855 30.6789 21.6855C30.0102 21.6855 29.4681 22.0868 29.4681 22.5817C29.4681 23.0766 30.0102 23.4778 30.6789 23.4778Z" fill="#3C4043"/>
<path d="M12.7334 45.4128C12.8643 45.2823 12.8269 45.0326 12.6499 44.855C12.4729 44.6774 12.2233 44.6392 12.0924 44.7696C11.9615 44.9001 11.9989 45.1498 12.1759 45.3274C12.3529 45.505 12.6026 45.5433 12.7334 45.4128Z" fill="#5F6368"/>
<path d="M11.4135 45.9628C11.5444 45.8324 11.507 45.5826 11.33 45.405C11.153 45.2274 10.9034 45.1892 10.7725 45.3197C10.6416 45.4501 10.679 45.6999 10.856 45.8775C11.033 46.0551 11.2826 46.0933 11.4135 45.9628Z" fill="#5F6368"/>
<path d="M10.5425 47.2038C10.6734 47.0734 10.636 46.8236 10.459 46.646C10.2819 46.4684 10.0323 46.4302 9.90143 46.5607C9.77054 46.6911 9.80793 46.9409 9.98495 47.1185C10.162 47.2961 10.4116 47.3343 10.5425 47.2038Z" fill="#5F6368"/>
<path d="M10.5708 48.9052C10.6792 48.7972 10.6482 48.5905 10.5017 48.4435C10.3551 48.2964 10.1485 48.2648 10.0401 48.3728C9.93177 48.4808 9.96273 48.6875 10.1093 48.8346C10.2558 48.9816 10.4624 49.0132 10.5708 48.9052Z" fill="#5F6368"/>
<path d="M11.9767 50.4883C12.1719 48.4525 13.3425 47.2901 14.5025 46.4415C14.5497 45.9489 13.7196 45.6763 13.1884 46.1716C12.6389 46.6839 11.2501 48.7654 11.2028 49.2581C11.1556 49.7507 11.311 50.4245 11.9767 50.4883Z" fill="#5F6368"/>
<path d="M23.4545 17.051C23.4545 17.051 23.0259 17.2709 22.8289 17.9115C22.6319 18.5521 22.7713 18.9598 22.7713 18.9598" stroke="#5F6368" stroke-width="0.5"/>
<path d="M37.8688 17.051C37.8688 17.051 38.2973 17.2709 38.4943 17.9115C38.6913 18.5521 38.5519 18.9598 38.5519 18.9598" stroke="#5F6368" stroke-width="0.5"/>
<path d="M38.2726 47.497C37.3501 48.6496 35.9417 51.6296 39.0793 52.0173L40.1409 47.6894C39.5197 43.7553 37.4242 37.6862 36.0029 33.8435C36.9297 37.8394 38.145 43.7093 38.2726 47.497Z" fill="#BDC1C6"/>
<path d="M19.3777 48.9223C21.2635 49.2824 21.8464 48.9223 24.795 48.9223L21.3301 48.018C21.1037 44.2158 26.7482 35.6683 20.1722 33.9531C17.3787 40.6624 18.8394 45.0988 19.3777 48.9223Z" fill="#BDC1C6"/>
<path d="M26.5476 42.5266C26.802 46.194 26.8656 48.1232 27.9044 48.9075L25.553 49.195C24.7244 47.3207 18.0181 45.9494 22.2108 40.6212C25.9251 41.7176 25.9336 40.4267 26.5476 42.5266Z" fill="#BDC1C6"/>
<path d="M34.6232 30.5083C34.6232 30.5083 31.9861 22.5571 37.4345 26.0499C42.8828 29.5427 45.6467 38.5454 45.4045 48.4754C45.4045 51.7277 45.7587 52.3182 41.093 52.3103C38.0276 52.3052 38.894 50.2547 39.9984 47.9567C38.6061 41.9759 34.6232 30.5083 34.6232 30.5083Z" fill="#E8F0FE"/>
<path d="M26.6864 35.8902C26.6864 35.8902 29.2583 23.4623 23.6452 26.9462C18.3624 33.2227 19.0381 40.0007 19.7618 49.4573C19.4138 51.8932 19.7618 53.7738 25.3317 53.3413C28.4628 52.8743 27.4188 50.9952 26.6866 48.9541C26.6866 42.4805 26.6864 35.8902 26.6864 35.8902Z" fill="#E8F0FE"/>
<path d="M41.8123 48.1249C41.4399 45.8617 39.1918 44.6013 37.5422 44.5193C34.6274 45.2557 32.5257 47.5498 32.8297 49.3982C33.1336 51.2466 36.8892 52.7915 39.2872 51.9463C40.8353 51.411 42.1847 50.388 41.8123 48.1249Z" fill="#E8F0FE"/>
<path fill-rule="evenodd" clip-rule="evenodd" d="M37.6938 45.0972C39.3676 45.1217 41.6104 46.2653 41.9139 48.4406C41.9658 48.8124 41.9553 49.1738 41.8945 49.5204C42.1453 48.9359 42.2612 48.2817 42.1645 47.5884C41.8717 45.4894 39.8161 44.3678 38.2881 44.3297C36.7853 44.7459 35.5016 45.599 34.6939 46.5684C35.5164 45.9353 36.5481 45.4075 37.6938 45.0972Z" fill="#BDC1C6"/>
<path d="M40.5304 49.4485C40.5912 49.5543 40.7568 49.5731 40.9003 49.4906C41.0437 49.4081 41.1108 49.2555 41.0499 49.1497C40.9891 49.044 40.8235 49.0251 40.68 49.1077C40.5366 49.1902 40.4696 49.3428 40.5304 49.4485Z" fill="#5F6368"/>
<path d="M40.3963 48.1014C40.4885 48.2616 40.7394 48.2902 40.9567 48.1651C41.1741 48.0401 41.2756 47.8089 41.1835 47.6487C41.0914 47.4885 40.8405 47.46 40.6231 47.585C40.4057 47.71 40.3042 47.9412 40.3963 48.1014Z" fill="#5F6368"/>
<path d="M39.6092 46.8866C39.7013 47.0468 39.9522 47.0753 40.1696 46.9503C40.3869 46.8253 40.4885 46.5941 40.3963 46.4339C40.3042 46.2737 40.0533 46.2451 39.8359 46.3702C39.6185 46.4952 39.517 46.7264 39.6092 46.8866Z" fill="#5F6368"/>
<path d="M38.2603 46.2636C38.3366 46.3962 38.5443 46.4198 38.7243 46.3163C38.9042 46.2128 38.9882 46.0214 38.912 45.8888C38.8357 45.7562 38.628 45.7326 38.448 45.8361C38.2681 45.9396 38.1841 46.131 38.2603 46.2636Z" fill="#5F6368"/>
<path d="M36.431 47.0323C38.2311 47.8688 38.7156 49.1038 38.7573 50.8105C39.1914 51.0483 39.0975 50.3977 39.4187 49.8111C39.5745 48.8957 38.7816 47.6143 38.3475 47.3765C37.9134 47.1388 36.7522 46.4458 36.431 47.0323Z" fill="#5F6368"/>
</svg>
