<svg width="99" height="60" viewBox="0 0 99 60" fill="none" xmlns="http://www.w3.org/2000/svg">
<mask id="mask0_777_71229" style="mask-type:alpha" maskUnits="userSpaceOnUse" x="0" y="8" width="99" height="52">
<rect x="0.116821" y="8.37622" width="98.15" height="50.962" fill="white"/>
</mask>
<g mask="url(#mask0_777_71229)">
<circle cx="49.1918" cy="61.0751" r="49.0751" fill="#5F6368"/>
</g>
<mask id="mask1_777_71229" style="mask-type:alpha" maskUnits="userSpaceOnUse" x="0" y="11" width="99" height="49">
<mask id="mask2_777_71229" style="mask-type:alpha" maskUnits="userSpaceOnUse" x="0" y="11" width="99" height="49">
<rect x="0.116821" y="11.9771" width="98.15" height="47.3613" fill="white"/>
</mask>
<g mask="url(#mask2_777_71229)">
<circle cx="49.1918" cy="61.0521" r="49.0751" fill="#E8F0FE"/>
</g>
</mask>
<g mask="url(#mask1_777_71229)">
<path d="M14.1286 21.116C4.66223 20.3691 -4.22146 22.8555 -7.25721 24.4714C-13.1031 27.583 -14.3253 29.9881 -12.0287 29.9881H11.422H43.6991C43.4734 28.6619 39.8808 27.3983 37.9708 26.2554C29.7092 23.0307 25.6018 24.74 14.1286 21.116Z" stroke="#3C4043" stroke-linejoin="round"/>
<path d="M77.3144 32.0098C79.5718 30.3712 82.4898 29.4659 85.5131 29.4663C99.0887 32.311 100.365 49.805 98.5046 49.805H79.507H42.6011C42.784 47.145 54.6642 45.1748 57.7163 44.0121C59.5509 43.3132 62.1259 39.0469 69.1104 37.645C71.1041 36.5561 72.1746 35.7407 77.3144 32.0098Z" stroke="#3C4043" stroke-linejoin="round"/>
<path d="M62.1915 20.6475H47.7223C47.8865 18.9962 58.212 15.6925 59.6492 15.2493C61.348 14.7254 66.5857 13.4675 67.1548 13.5455C68.7609 13.7656 70.8138 16.7676 71.676 17.553C74.2966 19.9407 73.7336 20.6475 72.7041 20.6475H62.1915Z" stroke="#3C4043" stroke-linejoin="round"/>
</g>
<mask id="mask3_777_71229" style="mask-type:alpha" maskUnits="userSpaceOnUse" x="7" y="0" width="84" height="60">
<rect x="7.53925" y="0.534912" width="83.2967" height="58.8034" fill="#D9D9D9"/>
</mask>
<g mask="url(#mask3_777_71229)">
<path d="M54.2793 36.1814C53.7039 36.2687 53.195 36.0941 52.8852 35.9412C54.2963 40.2206 55.4031 45.8539 57.4031 49.1664C57.8143 49.8473 65.8484 58.9181 66.9031 60.8433C70.8406 68.0308 62.9963 69.4196 60.9179 73.3014C63.1529 94.5035 60.9179 112.622 58.705 119.173C52.0664 121.356 47.4498 118.598 47.4498 118.598C45.237 112.047 45.4278 106.071 45.4278 106.071H34.3634C34.3634 106.071 34.5094 112.047 32.2965 118.598C32.2965 118.598 27.7248 121.356 21.0862 119.173C18.8733 112.622 13.6467 93.5997 15.8817 72.3976C16.6536 65.0747 7.30278 68.229 12.1531 60.8433C13.8103 58.3198 19.9415 50.119 20.5281 49.1664C23.2991 44.6664 25.4949 40.2206 26.9061 35.9412C26.5963 36.0941 26.0873 36.2687 25.512 36.1814C24.2189 35.9651 23.577 34.5922 23.3068 34.0144L23.2991 33.9979C23.1221 33.6267 22.1927 31.5742 23.2991 29.6308C24.14 28.146 26.1758 26.7485 27.7248 27.4473C28.7206 27.884 29.0968 29.0194 29.2074 29.4125C31.2433 28.5827 34.5626 27.5346 38.7892 27.4473C39.1654 27.4254 39.5194 27.4691 39.8956 27.4691C40.2718 27.4473 40.6259 27.4473 41.002 27.4473C45.2065 27.5128 48.5479 28.5827 50.5838 29.4125C50.6944 29.0194 51.0706 27.884 52.0664 27.4473C53.6154 26.7485 55.6512 28.146 56.4921 29.6308C57.5986 31.5742 56.6692 33.6267 56.4921 33.9979L56.4844 34.0144C56.2142 34.5922 55.5724 35.9651 54.2793 36.1814Z" fill="#E8F0FE"/>
<path d="M35.7472 42.6375C38.4985 43.7051 41.2087 43.7051 43.96 42.6375" stroke="#3C4043" stroke-miterlimit="10"/>
<line x1="39.965" y1="40.5042" x2="39.965" y2="43.4381" stroke="#3C4043"/>
<path d="M34.9064 38.1031C35.3709 38.1031 35.7473 37.7316 35.7473 37.2733C35.7473 36.8151 35.3709 36.4436 34.9064 36.4436C34.442 36.4436 34.0656 36.8151 34.0656 37.2733C34.0656 37.7316 34.442 38.1031 34.9064 38.1031Z" fill="#3C4043"/>
<path d="M44.9134 38.1031C45.3778 38.1031 45.7543 37.7316 45.7543 37.2733C45.7543 36.8151 45.3778 36.4436 44.9134 36.4436C44.449 36.4436 44.0725 36.8151 44.0725 37.2733C44.0725 37.7316 44.449 38.1031 44.9134 38.1031Z" fill="#3C4043"/>
<path d="M39.9061 41.3783C41.1282 41.3783 42.119 40.6451 42.119 39.7407C42.119 38.8362 41.1282 38.103 39.9061 38.103C38.684 38.103 37.6932 38.8362 37.6932 39.7407C37.6932 40.6451 38.684 41.3783 39.9061 41.3783Z" fill="#3C4043"/>
<path d="M26.7032 29.6335C26.7032 29.6335 25.92 30.0354 25.56 31.2061C25.2 32.3768 25.4547 33.1218 25.4547 33.1218" stroke="#5F6368"/>
<path d="M53.0456 29.6335C53.0456 29.6335 53.8288 30.0354 54.1888 31.2061C54.5487 32.3768 54.294 33.1218 54.294 33.1218" stroke="#5F6368"/>
</g>
<path d="M39.57 39.1445C39.57 39.1445 39.8828 39.0703 40.4204 39.2342C40.958 39.3982 41.206 39.5982 41.206 39.5982" stroke="#E8F0FE" stroke-width="0.5"/>
<path fill-rule="evenodd" clip-rule="evenodd" d="M74.9473 48.6004C74.9501 46.8593 77.8828 42.7641 81.2603 43.1089C84.6377 43.4537 86.641 47.1321 86.8613 49.94C86.9678 51.2127 86.7306 52.5144 86.2504 53.7103C86.2459 53.8141 86.2431 53.9124 86.2431 54.0055C86.2431 54.1031 86.2825 54.4369 86.3438 54.9561C86.4556 55.9026 86.6402 57.4655 86.7915 59.3383H73.5615C74.3172 56.498 74.9085 53.8574 74.9085 52.6967C74.9308 52.4649 74.952 52.2409 74.9724 52.0244C74.9797 51.9475 74.9869 51.8716 74.994 51.7966C74.9559 50.8556 74.9461 49.7947 74.9473 48.6004Z" fill="#E8F0FE"/>
<path d="M84.9448 49.2414C85.2193 49.3331 85.5545 49.1097 85.6935 48.7424C85.8325 48.3752 85.7227 48.0031 85.4482 47.9114C85.1737 47.8197 84.8386 48.0431 84.6996 48.4104C84.5606 48.7777 84.6704 49.1497 84.9448 49.2414Z" fill="#5F6368"/>
<path d="M83.4474 47.0974C83.7218 47.1891 84.057 46.9657 84.196 46.5984C84.335 46.2311 84.2252 45.8591 83.9507 45.7674C83.6763 45.6757 83.3411 45.8991 83.2021 46.2664C83.0631 46.6336 83.1729 47.0057 83.4474 47.0974Z" fill="#5F6368"/>
<path d="M81.3993 46.2663C81.6738 46.358 82.0089 46.1346 82.1479 45.7673C82.2869 45.4001 82.1771 45.028 81.9027 44.9363C81.6282 44.8446 81.293 45.068 81.154 45.4353C81.015 45.8025 81.1248 46.1746 81.3993 46.2663Z" fill="#5F6368"/>
<path d="M78.8791 46.3715C79.1535 46.4632 79.4887 46.2398 79.6277 45.8726C79.7667 45.5053 79.6569 45.1332 79.3824 45.0416C79.108 44.9499 78.7728 45.1733 78.6338 45.5405C78.4948 45.9078 78.6046 46.2798 78.8791 46.3715Z" fill="#5F6368"/>
<path d="M76.7966 47.6231C77.036 47.6326 77.2509 47.3776 77.2766 47.0535C77.3023 46.7294 77.1291 46.459 76.8897 46.4495C76.6503 46.44 76.4355 46.695 76.4098 47.0191C76.384 47.3431 76.5573 47.6135 76.7966 47.6231Z" fill="#5F6368"/>
<path d="M84.4108 51.8679C83.4123 50.5277 79.1422 49.5984 76.912 49.7728C76.3343 49.2342 77.4528 47.9394 78.5501 47.6926C80.8684 47.1713 83.2742 48.5665 84.1045 49.3406C84.6823 49.8792 85.1053 51.1117 84.4108 51.8679Z" fill="#5F6368"/>
</svg>
