<svg width="99" height="59" viewBox="0 0 99 59" fill="none" xmlns="http://www.w3.org/2000/svg">
<mask id="mask0_1053_69737" style="mask-type:alpha" maskUnits="userSpaceOnUse" x="0" y="7" width="99" height="52">
<rect x="0.560059" y="7.84131" width="98.15" height="50.962" fill="white"/>
</mask>
<g mask="url(#mask0_1053_69737)">
<circle cx="49.635" cy="61.0751" r="49.0751" fill="#AECBFA"/>
</g>
<mask id="mask1_1053_69737" style="mask-type:alpha" maskUnits="userSpaceOnUse" x="0" y="12" width="99" height="51">
<mask id="mask2_1053_69737" style="mask-type:alpha" maskUnits="userSpaceOnUse" x="0" y="12" width="99" height="51">
<rect x="0.560059" y="12" width="98.15" height="50.962" fill="white"/>
</mask>
<g mask="url(#mask2_1053_69737)">
<circle cx="49.635" cy="61.0751" r="49.0751" fill="#E8F0FE"/>
</g>
</mask>
<g mask="url(#mask1_1053_69737)">
<path d="M14.5718 21.139C5.10547 20.3921 -3.77822 22.8785 -6.81397 24.4943C-12.6599 27.6059 -13.8821 30.011 -11.5855 30.011H11.8653H44.1423C43.9166 28.6848 40.324 27.4213 38.4141 26.2783C30.1524 23.0537 26.045 24.7629 14.5718 21.139Z" stroke="#669DF6" stroke-linejoin="round"/>
<path d="M77.7576 32.0327C80.015 30.3941 82.933 29.4889 85.9564 29.4893C99.532 32.334 100.808 49.8279 98.9479 49.8279H79.9502H43.0444C43.2272 47.1679 55.1074 45.1978 58.1595 44.0351C59.9942 43.3361 62.5691 39.0699 69.5537 37.6679C71.5473 36.5791 72.6178 35.7637 77.7576 32.0327Z" stroke="#669DF6" stroke-linejoin="round"/>
<path d="M62.6348 20.6704H48.1655C48.3297 19.0192 58.6552 15.7154 60.0925 15.2722C61.7913 14.7484 67.0289 13.4904 67.598 13.5684C69.2041 13.7885 71.2571 16.7905 72.1192 17.576C74.7398 19.9636 74.1768 20.6704 73.1473 20.6704H62.6348Z" stroke="#669DF6" stroke-linejoin="round"/>
</g>
<mask id="mask3_1053_69737" style="mask-type:alpha" maskUnits="userSpaceOnUse" x="7" y="0" width="85" height="59">
<rect x="7.98248" width="83.2967" height="58.8034" fill="#D9D9D9"/>
</mask>
<g mask="url(#mask3_1053_69737)">
<path d="M54.7225 35.6465C54.1471 35.7338 53.6382 35.5592 53.3284 35.4063C54.7395 39.6856 55.8463 45.3189 57.8463 48.6314C58.2575 49.3124 66.2916 58.3831 67.3463 60.3084C71.2838 67.4959 63.4395 68.8847 61.3611 72.7665C63.5961 93.9686 61.3611 112.087 59.1482 118.638C52.5096 120.821 47.893 118.063 47.893 118.063C45.6802 111.512 45.871 105.536 45.871 105.536H34.8066C34.8066 105.536 34.9526 111.512 32.7398 118.063C32.7398 118.063 28.168 120.821 21.5294 118.638C19.3166 112.087 14.0899 93.0647 16.3249 71.8627C17.0968 64.5398 7.74598 67.6941 12.5963 60.3084C14.2535 57.7849 20.3847 49.5841 20.9713 48.6314C23.7423 44.1314 25.9382 39.6856 27.3493 35.4063C27.0395 35.5592 26.5305 35.7338 25.9552 35.6465C24.6621 35.4302 24.0202 34.0573 23.75 33.4795L23.7423 33.463C23.5653 33.0918 22.6359 31.0392 23.7423 29.0959C24.5832 27.6111 26.619 26.2136 28.168 26.9124C29.1638 27.3491 29.54 28.4845 29.6507 28.8775C31.6865 28.0478 35.0058 26.9997 39.2324 26.9124C39.6086 26.8905 39.9626 26.9342 40.3388 26.9342C40.715 26.9124 41.0691 26.9124 41.4452 26.9124C45.6497 26.9779 48.9911 28.0478 51.027 28.8775C51.1376 28.4845 51.5138 27.3491 52.5096 26.9124C54.0586 26.2136 56.0945 27.6111 56.9353 29.0959C58.0418 31.0392 57.1124 33.0918 56.9353 33.463L56.9276 33.4795C56.6574 34.0573 56.0156 35.4302 54.7225 35.6465Z" fill="white"/>
<path d="M36.1904 42.1025C38.9417 43.1702 41.6519 43.1702 44.4032 42.1025" stroke="#202124" stroke-miterlimit="10"/>
<line x1="40.4082" y1="39.9692" x2="40.4082" y2="42.9032" stroke="#202124"/>
<path d="M35.3496 37.5682C35.8141 37.5682 36.1905 37.1967 36.1905 36.7384C36.1905 36.2802 35.8141 35.9087 35.3496 35.9087C34.8852 35.9087 34.5088 36.2802 34.5088 36.7384C34.5088 37.1967 34.8852 37.5682 35.3496 37.5682Z" fill="#202124"/>
<path d="M45.3566 37.5682C45.821 37.5682 46.1975 37.1967 46.1975 36.7384C46.1975 36.2802 45.821 35.9087 45.3566 35.9087C44.8922 35.9087 44.5157 36.2802 44.5157 36.7384C44.5157 37.1967 44.8922 37.5682 45.3566 37.5682Z" fill="#202124"/>
<path d="M40.3493 40.8437C41.5715 40.8437 42.5622 40.1105 42.5622 39.206C42.5622 38.3016 41.5715 37.5684 40.3493 37.5684C39.1272 37.5684 38.1365 38.3016 38.1365 39.206C38.1365 40.1105 39.1272 40.8437 40.3493 40.8437Z" fill="#202124"/>
<path d="M27.1464 29.0986C27.1464 29.0986 26.3632 29.5005 26.0032 30.6712C25.6432 31.8419 25.898 32.5869 25.898 32.5869" stroke="#9AA0A6"/>
<path d="M53.4888 29.0986C53.4888 29.0986 54.272 29.5005 54.632 30.6712C54.992 31.8419 54.7372 32.5869 54.7372 32.5869" stroke="#9AA0A6"/>
<path d="M40.0132 38.6094C40.0132 38.6094 40.326 38.5351 40.8636 38.6991C41.4012 38.863 41.6493 39.0631 41.6493 39.0631" stroke="white" stroke-width="0.5"/>
</g>
<path fill-rule="evenodd" clip-rule="evenodd" d="M75.3906 48.0655C75.3934 46.3244 78.3261 42.2292 81.7036 42.574C85.081 42.9188 87.0843 46.5972 87.3046 49.4051C87.4111 50.6778 87.1739 51.9795 86.6937 53.1754C86.6892 53.2792 86.6864 53.3775 86.6864 53.4706C86.6864 53.5682 86.7258 53.902 86.7871 54.4212C86.8989 55.3677 87.0835 56.9306 87.2348 58.8034H74.0048C74.7605 55.9631 75.3518 53.3225 75.3518 52.1618C75.3741 51.93 75.3953 51.706 75.4157 51.4895C75.423 51.4126 75.4302 51.3367 75.4373 51.2617C75.3992 50.3207 75.3894 49.2598 75.3906 48.0655Z" fill="white"/>
<path d="M85.3881 48.7065C85.6626 48.7982 85.9978 48.5748 86.1368 48.2075C86.2758 47.8403 86.166 47.4682 85.8915 47.3765C85.617 47.2848 85.2819 47.5082 85.1429 47.8755C85.0039 48.2428 85.1137 48.6148 85.3881 48.7065Z" fill="#9AA0A6"/>
<path d="M83.8906 46.5625C84.165 46.6542 84.5002 46.4308 84.6392 46.0635C84.7782 45.6962 84.6684 45.3242 84.3939 45.2325C84.1195 45.1408 83.7843 45.3642 83.6453 45.7315C83.5063 46.0987 83.6161 46.4708 83.8906 46.5625Z" fill="#9AA0A6"/>
<path d="M81.8426 45.7314C82.1171 45.8231 82.4522 45.5997 82.5912 45.2324C82.7302 44.8652 82.6204 44.4931 82.346 44.4014C82.0715 44.3097 81.7363 44.5331 81.5973 44.9004C81.4583 45.2676 81.5681 45.6397 81.8426 45.7314Z" fill="#9AA0A6"/>
<path d="M79.3223 45.8366C79.5967 45.9283 79.9319 45.7049 80.0709 45.3377C80.2099 44.9704 80.1001 44.5983 79.8256 44.5067C79.5512 44.415 79.216 44.6384 79.077 45.0056C78.938 45.3729 79.0478 45.7449 79.3223 45.8366Z" fill="#9AA0A6"/>
<path d="M77.2398 47.0882C77.4792 47.0977 77.6941 46.8427 77.7198 46.5186C77.7455 46.1945 77.5723 45.9241 77.3329 45.9146C77.0935 45.9051 76.8787 46.1601 76.853 46.4842C76.8272 46.8082 77.0005 47.0786 77.2398 47.0882Z" fill="#9AA0A6"/>
<path d="M84.854 51.333C83.8555 49.9928 79.5854 49.0635 77.3552 49.2379C76.7775 48.6993 77.896 47.4045 78.9933 47.1577C81.3116 46.6364 83.7174 48.0316 84.5477 48.8057C85.1255 49.3443 85.5485 50.5768 84.854 51.333Z" fill="#9AA0A6"/>
</svg>
